<svg xmlns="http://www.w3.org/2000/svg" width="1200" height="630" viewBox="0 0 1200 630">
  <rect width="1200" height="630" fill="#000"/>
  <circle cx="600" cy="0" r="420" fill="#ff8c3c" fill-opacity="0.12"/>
  <g fill="#fff" transform="translate(520 180) scale(6)">
    <path d="M12.9 1.6 8.9 8.2h2.7l-1.2 4.6 4.4-6.9h-2.7l.8-4.3Z"/>
    <path d="M3.4 12.1h13.1c1.9 0 3.4 1.2 3.9 2.9.1.4-.2.8-.6.8h-1.9c-.3 0-.6.2-.7.5l-.5 1.5c-.1.4-.5.6-.9.6H8.3c-.4 0-.8-.2-.9-.6l-.5-1.5a.75.75 0 0 0-.7-.5H3.4a.9.9 0 0 1-.9-.9v-1.5c0-.7.4-1.3.9-1.3Z"/>
    <rect x="7.4" y="19.4" width="9.6" height="2.4" rx="1.2"/>
  </g>
  <text x="600" y="420" text-anchor="middle" fill="#fff" font-family="Inter, Arial, sans-serif" font-size="64" font-weight="600" letter-spacing="-2">SMITH.forge</text>
  <text x="600" y="480" text-anchor="middle" fill="#9a9a9a" font-family="Inter, Arial, sans-serif" font-size="28">Agents that forge better agents</text>
</svg>
